<svg xmlns="http://www.w3.org/2000/svg" width="32" height="32" viewBox="0 0 32 32" fill="none">
  <!-- Palm trunk -->
  <path d="M15 30 L15.5 16 Q15.8 12 16 10" stroke="#8B6914" stroke-width="2.5" stroke-linecap="round" fill="none"/>
  <!-- Trunk texture lines -->
  <path d="M14.2 28 L16.8 28" stroke="#A07818" stroke-width="0.5" stroke-linecap="round"/>
  <path d="M14.3 26 L16.7 26" stroke="#A07818" stroke-width="0.5" stroke-linecap="round"/>
  <path d="M14.4 24 L16.6 24" stroke="#A07818" stroke-width="0.5" stroke-linecap="round"/>
  <path d="M14.5 22 L16.5 22" stroke="#A07818" stroke-width="0.5" stroke-linecap="round"/>
  <path d="M14.6 20 L16.4 20" stroke="#A07818" stroke-width="0.5" stroke-linecap="round"/>
  <!-- Palm fronds - top left -->
  <path d="M16 10 Q8 4 2 3 Q6 6 10 8 Q12 9 16 10Z" fill="#1a3d2b"/>
  <path d="M16 10 Q6 7 1 8 Q5 9 10 10 Q13 10.5 16 10Z" fill="#2d5a3f"/>
  <!-- Palm fronds - top right -->
  <path d="M16 10 Q24 4 30 3 Q26 6 22 8 Q20 9 16 10Z" fill="#1a3d2b"/>
  <path d="M16 10 Q26 7 31 8 Q27 9 22 10 Q19 10.5 16 10Z" fill="#2d5a3f"/>
  <!-- Palm fronds - upper left -->
  <path d="M16 10 Q10 2 4 1 Q8 5 12 8 Q14 9 16 10Z" fill="#1a3d2b" opacity="0.8"/>
  <!-- Palm fronds - upper right -->
  <path d="M16 10 Q22 2 28 1 Q24 5 20 8 Q18 9 16 10Z" fill="#1a3d2b" opacity="0.8"/>
  <!-- Palm fronds - drooping left -->
  <path d="M16 10 Q10 10 4 14 Q8 12 12 11 Q14 10.5 16 10Z" fill="#2d5a3f" opacity="0.7"/>
  <!-- Palm fronds - drooping right -->
  <path d="M16 10 Q22 10 28 14 Q24 12 20 11 Q18 10.5 16 10Z" fill="#2d5a3f" opacity="0.7"/>
  <!-- Fruit bunches -->
  <circle cx="14" cy="12" r="1.2" fill="#c9a44a"/>
  <circle cx="15.5" cy="13" r="1" fill="#c9a44a"/>
  <circle cx="17" cy="12.5" r="1.1" fill="#c9a44a"/>
  <circle cx="13" cy="13.5" r="0.9" fill="#d4b76a"/>
  <circle cx="18" cy="13.5" r="0.9" fill="#d4b76a"/>
  <circle cx="15" cy="14" r="0.8" fill="#c9a44a"/>
  <circle cx="16.5" cy="14.2" r="0.8" fill="#d4b76a"/>
</svg>
